<svg width="24" height="24" viewBox="0 0 24 24" fill="none" xmlns="http://www.w3.org/2000/svg">
<g clip-path="url(#clip0_595_108)">
<path fill-rule="evenodd" clip-rule="evenodd" d="M12 1.4C6.14578 1.4 1.4 6.14578 1.4 12C1.4 17.8542 6.14578 22.6 12 22.6C17.8542 22.6 22.6 17.8542 22.6 12C22.6 6.14578 17.8542 1.4 12 1.4ZM0 12C0 5.37258 5.37258 0 12 0C18.6274 0 24 5.37258 24 12C24 18.6274 18.6274 24 12 24C5.37258 24 0 18.6274 0 12Z" fill="white"/>
<path fill-rule="evenodd" clip-rule="evenodd" d="M8.8391 6.80329C8.4525 6.80329 8.1391 7.1167 8.1391 7.50329C8.1391 7.88989 8.4525 8.20329 8.8391 8.20329H14.783L7.0772 15.9091C6.80384 16.1825 6.80384 16.6257 7.0772 16.899C7.3506 17.1724 7.7938 17.1724 8.0672 16.899L15.7753 9.19085V15.1395C15.7753 15.5261 16.0887 15.8395 16.4753 15.8395C16.8619 15.8395 17.1753 15.5261 17.1753 15.1395V7.58605C17.1753 7.15375 16.8249 6.80329 16.3926 6.80329H8.8391Z" fill="white"/>
</g>
<defs>
<clipPath id="clip0_595_108">
<rect width="24" height="24" fill="white"/>
</clipPath>
</defs>
</svg>
